# xmcd CD database file
#
# Track frame offsets:
#	150
#	28348
#	49056
#	74532
#	95553
#	117761
#	138367
#	160154
#	184568
#	206200
#
# Disc length: 3085 seconds
#
# Revision: 0
# Processed by: cddbd v1.5.2PL0 Copyright (c) Steve Scherf et al.
# Submitted via: CDex 1.51
#
DISCID=900c0b0a
DTITLE=David Arkenstone - The Magic Light Of The Colorado Plateau
DYEAR=2010
DGENRE=New Age
TTITLE0=The Sacred Fire
TTITLE1=Living Colors
TTITLE2=Ancient Spirits
TTITLE3=Distant Voices
TTITLE4=Temple Of Stone
TTITLE5=The Colors Of The Wind
TTITLE6=Free Spirits
TTITLE7=The Colors Of Time
TTITLE8=Wind And Water
TTITLE9=Echoes In Stone
EXTD=YEAR: 2010
EXTT0=
EXTT1=
EXTT2=
EXTT3=
EXTT4=
EXTT5=
EXTT6=
EXTT7=
EXTT8=
EXTT9=
PLAYORDER=
